PathFileType	4	(X/Y/Z)	Patient4_TMGait_0pt7_02_right_41.trc.trc
DataRate	CameraRate	NumFrames	NumMarkers	Units	OrigDataRate	OrigDataStartFrame	OrigNumFrames
88.607594936709	88.607594936709	4	33	mm	88.607594936709	1	       141
Frame#	Time	Sacral			L.Shoulder			Chest			R.Shoulder			Neck			R.ASIS			L.ASIS			R.Thigh.Superior			R.Thigh.Lateral			R.Thigh.Inferior			R.Patella			L.Thigh.Superior			L.Thigh.Lateral			L.Thigh.Inferior			L.Patella			L.Shank.Superior			L.Shank.Lateral			L.Shank.Inferior			R.Shank.Superior			R.Shank.Lateral			R.Shank.Inferior			R.Heel			R.Midfoot.Superior			R.Midfoot.Lateral			R.Toe			L.Heel			L.Midfoot.Lateral			L.Midfoot.Superior			L.Toe			L.Elbow			L.Wrist			R.Elbow			R.Wrist			
		X1	Y1	Z1	X2	Y2	Z2	X3	Y3	Z3	X4	Y4	Z4	X5	Y5	Z5	X6	Y6	Z6	X7	Y7	Z7	X8	Y8	Z8	X9	Y9	Z9	X10	Y10	Z10	X11	Y11	Z11	X12	Y12	Z12	X13	Y13	Z13	X14	Y14	Z14	X15	Y15	Z15	X16	Y16	Z16	X17	Y17	Z17	X18	Y18	Z18	X19	Y19	Z19	X20	Y20	Z20	X21	Y21	Z21	X22	Y22	Z22	X23	Y23	Z23	X24	Y24	Z24	X25	Y25	Z25	X26	Y26	Z26	X27	Y27	Z27	X28	Y28	Z28	X29	Y29	Z29	X30	Y30	Z30	X31	Y31	Z31	X32	Y32	Z32	X33	Y33	Z33	

1	46.420000000000	718.619246347029	1018.733455519543	470.499288467170	934.753078260175	1432.840414160542	293.843946672836	1031.721752195158	1349.046695771928	453.796385389887	957.550337925680	1431.129363836685	628.126105821714	945.283086802002	1490.883385700190	448.645226284783	938.860951618094	942.862503234535	593.778280387399	930.552147838104	962.357655097238	319.948641871970	1015.435450861852	772.626574749752	561.998620673184	974.230220244595	652.662883993506	635.522607051773	1062.986797501794	611.339794347830	555.299761013550	1078.106770658625	494.624178642314	576.535197174772	980.775938872136	750.430574144120	346.897147068167	890.116116527774	636.237153189581	289.983066475886	974.956339116791	557.971340041873	353.251769278446	975.911409843517	487.157518619376	362.327807404258	944.081999828445	415.094616693653	354.342850008818	848.471056715211	305.048583400147	305.411004763248	894.933819087543	191.403377609041	374.672102737128	992.115723505911	427.408477405735	584.028239442823	865.376182201571	404.856398462430	642.669924875944	838.285869513868	298.177745328542	594.540873447543	635.531342977169	271.897366180238	564.415323284465	786.110129122509	175.551589812728	603.277850497019	677.001747830328	194.644373745156	633.173503141190	824.290872019814	49.706602426681	619.522363396791	762.729973936138	38.240939381360	421.279083793818	832.199767876137	35.745241340558	336.353299300082	917.197856373879	95.931154607419	359.872343923529	1044.185277972556	40.925466938319	323.721440496520	906.172444860781	1098.452968351930	145.279449959179	1129.535153748216	968.511003218285	158.950397181061	898.298523638955	1082.950067968284	738.594199300487	993.958787960435	837.593487672250	733.838083510582	
2	46.431285714286	717.896700630920	1018.921065983467	469.762865792482	935.855182919998	1433.100192600443	293.548544210498	1031.500152279002	1349.129392809720	454.161100287083	956.275256691411	1431.412426406274	627.939842571821	945.246384351872	1491.115971681168	448.172610580072	937.658067692516	943.546655489354	594.025116733799	930.400036916037	961.150052433862	320.289373437386	1017.450212513453	777.197957831395	561.950979290138	979.595526420618	656.499187629968	635.581052060721	1069.211217851513	617.507050526943	555.155607479056	1087.483685342060	501.227987036457	576.447183977214	978.494792691264	749.333720074904	347.394811491975	886.717238329498	636.153341387969	290.015754729684	970.331200140307	556.947135677461	353.511440583001	970.377257841318	486.166723187310	362.668778162764	938.143282275473	414.497277068267	354.500917830342	841.912781062347	305.123132691372	305.409191922599	887.454818384810	191.156910786707	374.652795156811	1003.308615147746	431.883689779749	583.557793264773	876.941091049836	405.664264862591	641.115673562260	853.350747217278	298.314782803691	592.788279435781	651.671476743266	265.200563963002	560.902852446420	805.122659243808	174.789869579260	601.180650250686	695.426523081313	190.025140984504	630.387856199112	847.831420850178	50.868447014572	618.476191581100	754.332666405074	38.345198863497	421.171702768474	823.894391827072	35.747824602320	336.291254843002	908.923944029936	95.895196648836	359.786496448339	1035.858252249043	40.820655895547	323.642240281572	913.874587520268	1099.860793077343	143.191973156774	1142.759528966489	984.372026601483	159.573267639760	891.126465457434	1084.530067447022	738.309424916153	971.207300552942	835.167090795742	735.969724294968	
3	46.442571428571	717.186307010302	1019.096448911641	469.061314335009	936.954281109069	1433.334863276067	293.278233245556	1031.293116228990	1349.201200916170	454.543421485303	955.032433033648	1431.694393759822	627.779527717389	945.218815533821	1491.335419593444	447.721595217614	936.479834434662	944.203166181798	594.289243631237	930.309236943132	959.986492255103	320.590978896341	1019.395704810635	781.677923464452	561.940913510182	984.832678450235	660.279953317075	635.677451822152	1075.275485177888	623.579116735127	555.059049991022	1096.636114268080	507.753626012686	576.431203173190	976.235611095940	748.253242838177	347.916061161269	883.355341006719	636.071039573999	290.055074351836	965.749991224299	555.933123204426	353.773711393968	964.895067017127	485.190424802583	363.005187852259	932.266085979325	413.908683555950	354.659107329126	835.425513725673	305.196242527648	305.410032684746	880.063125536867	190.914987234458	374.634405353158	1014.315536184119	436.275930844419	583.146085983371	888.327074431296	406.335766397801	639.605661604713	868.280488409445	298.322422310765	591.078109769070	667.686678229633	258.363709041153	557.442866206846	824.009766171109	173.885573199016	599.129414718126	713.726754058162	185.242890751972	627.634968503317	871.246033221668	51.877455182912	617.446112280110	746.046652166711	38.448295464311	421.063394093112	815.693495225571	35.748292120931	336.231534950618	900.757744093082	95.860862375918	359.701663484762	1027.639789640956	40.721288408293	323.563166704838	921.450062426366	1101.242892728841	141.185706883176	1155.620320409268	1000.029081337583	160.257403695360	883.961981213780	1086.136891434851	738.067591744830	949.022360568682	833.022153822523	737.913380201378	
4	46.453857142857	716.507381988987	1019.243391511293	468.439269389552	938.055146376144	1433.512008130231	293.066122812012	1031.119089146734	1349.245380903379	454.972086463718	953.852780571355	1431.972733184637	627.671804444880	945.216113251263	1491.520331643746	447.321121855729	935.354570197740	944.798252003685	594.601228964532	930.332380283119	958.913636140358	320.846365086720	1021.195914405993	785.957032024555	562.011926368665	989.793709814864	663.914644480766	635.849387921377	1081.004160949490	629.421018904920	555.064017231882	1105.330437474776	514.110192666324	576.554024515267	973.992837988235	747.186862544035	348.493704762971	880.022688408548	635.990239026408	290.112967482481	961.195249608336	554.926952682796	354.045768386785	959.443666465749	484.233664847717	363.336639729506	926.438134160880	413.333512067063	354.819929107916	828.999868388277	305.269293516222	305.418220643204	872.757928244872	190.681808051671	374.619363827700	1024.987486554380	440.490153827031	582.850208387468	899.480626750960	406.662947449348	638.216991808464	883.120885601625	298.029407665682	589.480051293167	683.747545707919	251.080018491943	554.152794903803	842.924318501611	172.676773050730	597.198585048492	732.112793856928	180.039224981249	625.001579750080	894.750348976979	52.660384936208	616.464600827710	737.886000105213	38.553848920682	420.953135053486	807.604774566265	35.747864376111	336.176650163304	892.710102838119	95.829706788953	359.619473344965	1019.539310818250	40.630603729658	323.484687739889	928.830115430127	1102.578120030718	139.343499620956	1167.811207128841	1015.379320565737	161.101770939084	876.752757891942	1087.839276020128	737.915402168964	927.797847256034	831.444742273490	739.518304116624	
